<svg width="234" height="228" viewBox="0 0 234 228" fill="none" xmlns="http://www.w3.org/2000/svg">
<g filter="url(#filter0_d_117_222)">
<circle cx="120" cy="110" r="110" fill="#FFFDFD"/>
</g>
<path d="M169.2 139.7C169.2 139.7 185.061 137.922 193.5 131.6C200.043 126.699 204.5 110 204.5 110" stroke="#11072D" stroke-width="2" stroke-linecap="round"/>
<path d="M45.4999 135.5C45.4999 135.5 8.3176 133.651 10.4999 148C12.0269 158.04 30.9999 164 30.9999 164" stroke="#11072D" stroke-width="2" stroke-linecap="round"/>
<path fill-rule="evenodd" clip-rule="evenodd" d="M182.443 31.2501H140.014L136.691 24.6758C135.987 23.2703 134.902 22.0881 133.559 21.262C132.216 20.436 130.668 19.9989 129.089 20.0001H88.6757C87.1001 19.994 85.5547 20.4295 84.2165 21.2564C82.8783 22.0834 81.8014 23.2684 81.1093 24.6758L77.7857 31.2501H35.3571C33.8568 31.2501 32.4179 31.8427 31.3569 32.8976C30.296 33.9525 29.7 35.3832 29.7 36.8751V48.1251C29.7 49.6169 30.296 51.0476 31.3569 52.1025C32.4179 53.1574 33.8568 53.75 35.3571 53.75H182.443C183.943 53.75 185.382 53.1574 186.443 52.1025C187.504 51.0476 188.1 49.6169 188.1 48.1251V36.8751C188.1 35.3832 187.504 33.9525 186.443 32.8976C185.382 31.8427 183.943 31.2501 182.443 31.2501ZM48.51 184.18C48.7798 188.464 50.6815 192.485 53.8279 195.424C56.9743 198.363 61.129 199.999 65.4461 200H152.354C156.671 199.999 160.826 198.363 163.972 195.424C167.119 192.485 169.02 188.464 169.29 184.18L176.786 65H41.0143L45.6559 138.8L48.51 184.18ZM71.4857 100.1C71.4857 96.6206 74.3063 93.8 77.7857 93.8C81.2651 93.8 84.0857 96.6206 84.0857 100.1C84.0857 103.579 81.2651 106.4 77.7857 106.4C74.3063 106.4 71.4857 103.579 71.4857 100.1ZM108.9 181.1C132.3 181.1 140.014 158.6 140.014 158.6H77.7857C77.7857 158.6 85.5 181.1 108.9 181.1Z" fill="#4C9A74"/>
<path d="M140.014 158.6C140.014 158.6 132.3 181.1 108.9 181.1C85.5 181.1 77.7857 158.6 77.7857 158.6H140.014Z" fill="#415A54"/>
<path d="M71.4857 100.1C71.4857 96.6206 74.3063 93.8 77.7857 93.8C81.2651 93.8 84.0857 96.6206 84.0857 100.1C84.0857 103.579 81.2651 106.4 77.7857 106.4C74.3063 106.4 71.4857 103.579 71.4857 100.1Z" fill="#11072D"/>
<path d="M133.714 100.1C133.714 96.6206 136.535 93.8 140.014 93.8C143.494 93.8 146.314 96.6206 146.314 100.1C146.314 103.579 143.494 106.4 140.014 106.4C136.535 106.4 133.714 103.579 133.714 100.1Z" fill="#11072D"/>
<path d="M204.5 99.8944C205.603 103.991 205 108.894 204.5 110.394" stroke="#ACF2BC" stroke-width="2"/>
<path d="M213.553 84.3838C213.311 84.1225 212.912 84.2442 212.845 84.5913C212.532 86.1801 211.445 87.4736 209.882 88.0046L207.909 88.6747C205.295 89.5625 203.894 92.4037 204.782 95.0177C204.841 95.1903 204.917 95.3488 204.991 95.5107C206.181 93.8493 208.128 92.121 211.348 91.0272C211.565 90.9534 211.803 91.0707 211.877 91.2877C211.951 91.5047 211.833 91.7426 211.616 91.8163C205.417 93.922 204.079 98.6151 203.982 100.241C203.955 100.698 204.304 101.091 204.762 101.12C205.223 101.15 205.616 100.8 205.648 100.343C205.654 100.242 205.762 98.9868 206.662 97.5067C207.828 98.3179 209.699 98.8352 211.622 97.9455C215.398 96.3494 216.943 91.9516 215.499 87.7001C215.079 86.4622 214.377 85.2703 213.553 84.3838Z" fill="#ACF2BC"/>
<path d="M191.678 87.1993C191.846 86.8846 192.263 86.9004 192.416 87.219C193.124 88.6752 194.506 89.6481 196.153 89.7621L198.231 89.906C200.985 90.0967 203.065 92.4859 202.874 95.24C202.862 95.4219 202.829 95.5945 202.799 95.7699C201.223 94.4678 198.9 93.294 195.507 93.059C195.278 93.0432 195.078 93.2173 195.062 93.4459C195.046 93.6746 195.221 93.8746 195.449 93.8904C201.981 94.3427 204.474 98.5383 204.983 100.085C205.125 100.521 204.889 100.99 204.453 101.134C204.015 101.282 203.546 101.043 203.398 100.61C203.366 100.514 202.941 99.3277 201.693 98.1265C200.772 99.2088 199.096 100.187 197.01 99.8176C192.951 99.239 190.334 95.3819 190.644 90.9027C190.734 89.5984 191.108 88.2667 191.678 87.1993Z" fill="#ACF2BC"/>
<defs>
<filter id="filter0_d_117_222" x="6" y="0" width="228" height="228" filterUnits="userSpaceOnUse" color-interpolation-filters="sRGB">
<feFlood flood-opacity="0" result="BackgroundImageFix"/>
<feColorMatrix in="SourceAlpha" type="matrix" values="0 0 0 0 0 0 0 0 0 0 0 0 0 0 0 0 0 0 127 0" result="hardAlpha"/>
<feOffset dy="4"/>
<feGaussianBlur stdDeviation="2"/>
<feComposite in2="hardAlpha" operator="out"/>
<feColorMatrix type="matrix" values="0 0 0 0 0 0 0 0 0 0 0 0 0 0 0 0 0 0 0.25 0"/>
<feBlend mode="normal" in2="BackgroundImageFix" result="effect1_dropShadow_117_222"/>
<feBlend mode="normal" in="SourceGraphic" in2="effect1_dropShadow_117_222" result="shape"/>
</filter>
</defs>
</svg>
