<svg width="234" height="228" viewBox="0 0 234 228" fill="none" xmlns="http://www.w3.org/2000/svg">
<g filter="url(#filter0_d_11_104)">
<circle cx="120" cy="110" r="110" fill="#FFFDFD"/>
</g>
<path d="M169.2 139.7C169.2 139.7 185.061 137.922 193.5 131.6C200.043 126.699 204.5 110 204.5 110" stroke="#11072D" stroke-width="2" stroke-linecap="round"/>
<path d="M45.5 135.5C45.5 135.5 8.31772 133.651 10.5 148C12.027 158.04 31 164 31 164" stroke="#11072D" stroke-width="2" stroke-linecap="round"/>
<path fill-rule="evenodd" clip-rule="evenodd" d="M182.443 31.2501H140.014L136.691 24.6758C135.987 23.2703 134.902 22.0881 133.559 21.262C132.216 20.436 130.668 19.9989 129.089 20.0001H88.6757C87.1001 19.994 85.5547 20.4295 84.2165 21.2564C82.8783 22.0834 81.8014 23.2684 81.1093 24.6758L77.7857 31.2501H35.3571C33.8568 31.2501 32.4179 31.8427 31.3569 32.8976C30.296 33.9525 29.7 35.3832 29.7 36.8751V48.1251C29.7 49.6169 30.296 51.0476 31.3569 52.1025C32.4179 53.1574 33.8568 53.75 35.3571 53.75H182.443C183.943 53.75 185.382 53.1574 186.443 52.1025C187.504 51.0476 188.1 49.6169 188.1 48.1251V36.8751C188.1 35.3832 187.504 33.9525 186.443 32.8976C185.382 31.8427 183.943 31.2501 182.443 31.2501ZM48.51 184.18C48.7798 188.464 50.6815 192.485 53.8279 195.424C56.9743 198.363 61.129 199.999 65.4461 200H152.354C156.671 199.999 160.826 198.363 163.972 195.424C167.119 192.485 169.02 188.464 169.29 184.18L176.786 65H41.0143L45.6559 138.8L48.51 184.18ZM71.4857 100.1C71.4857 96.6206 74.3063 93.8 77.7857 93.8C81.2651 93.8 84.0857 96.6206 84.0857 100.1C84.0857 103.579 81.2651 106.4 77.7857 106.4C74.3063 106.4 71.4857 103.579 71.4857 100.1ZM108.9 181.1C132.3 181.1 140.014 158.6 140.014 158.6H77.7857C77.7857 158.6 85.5 181.1 108.9 181.1Z" fill="#4C9A74"/>
<path d="M140.014 158.6C140.014 158.6 132.3 181.1 108.9 181.1C85.5 181.1 77.7857 158.6 77.7857 158.6H140.014Z" fill="#415A54"/>
<path d="M71.4857 100.1C71.4857 96.6206 74.3063 93.8 77.7857 93.8C81.2651 93.8 84.0857 96.6206 84.0857 100.1C84.0857 103.579 81.2651 106.4 77.7857 106.4C74.3063 106.4 71.4857 103.579 71.4857 100.1Z" fill="#11072D"/>
<path d="M133.714 100.1C133.714 96.6206 136.535 93.8 140.014 93.8C143.494 93.8 146.314 96.6206 146.314 100.1C146.314 103.579 143.494 106.4 140.014 106.4C136.535 106.4 133.714 103.579 133.714 100.1Z" fill="#11072D"/>
<path d="M204.5 98.8933C205.603 102.99 205 107.893 204.5 109.393" stroke="#ACF2BC" stroke-width="2"/>
<path d="M213.55 83.3827C213.307 83.1213 212.908 83.243 212.842 83.5901C212.529 85.179 211.441 86.4724 209.878 87.0035L207.905 87.6735C205.291 88.5614 203.891 91.4025 204.779 94.0165C204.837 94.1892 204.913 94.3477 204.987 94.5095C206.178 92.8481 208.124 91.1199 211.345 90.026C211.562 89.9523 211.8 90.0695 211.873 90.2865C211.947 90.5036 211.83 90.7414 211.613 90.8151C205.413 92.9208 204.075 97.6139 203.978 99.2394C203.952 99.6967 204.3 100.09 204.758 100.119C205.219 100.149 205.612 99.7984 205.644 99.342C205.651 99.2406 205.758 97.9857 206.658 96.5055C207.825 97.3167 209.695 97.834 211.618 96.9443C215.394 95.3482 216.94 90.9505 215.496 86.699C215.075 85.461 214.373 84.2691 213.55 83.3827Z" fill="#ACF2BC"/>
<path d="M191.678 86.1995C191.846 85.8848 192.263 85.9006 192.416 86.2193C193.124 87.6755 194.506 88.6483 196.153 88.7624L198.231 88.9063C200.985 89.097 203.065 91.4862 202.874 94.2402C202.862 94.4221 202.829 94.5948 202.799 94.7702C201.223 93.468 198.9 92.2942 195.507 92.0593C195.278 92.0434 195.078 92.2175 195.062 92.4462C195.046 92.6748 195.221 92.8749 195.449 92.8907C201.981 93.343 204.474 97.5386 204.983 99.0854C205.125 99.5208 204.889 99.99 204.453 100.135C204.015 100.282 203.546 100.043 203.398 99.6101C203.366 99.5138 202.941 98.3279 201.693 97.1267C200.772 98.2091 199.096 99.1869 197.01 98.8179C192.951 98.2392 190.334 94.3822 190.644 89.9029C190.734 88.5986 191.108 87.267 191.678 86.1995Z" fill="#ACF2BC"/>
<defs>
<filter id="filter0_d_11_104" x="6" y="0" width="228" height="228" filterUnits="userSpaceOnUse" color-interpolation-filters="sRGB">
<feFlood flood-opacity="0" result="BackgroundImageFix"/>
<feColorMatrix in="SourceAlpha" type="matrix" values="0 0 0 0 0 0 0 0 0 0 0 0 0 0 0 0 0 0 127 0" result="hardAlpha"/>
<feOffset dy="4"/>
<feGaussianBlur stdDeviation="2"/>
<feComposite in2="hardAlpha" operator="out"/>
<feColorMatrix type="matrix" values="0 0 0 0 0 0 0 0 0 0 0 0 0 0 0 0 0 0 0.25 0"/>
<feBlend mode="normal" in2="BackgroundImageFix" result="effect1_dropShadow_11_104"/>
<feBlend mode="normal" in="SourceGraphic" in2="effect1_dropShadow_11_104" result="shape"/>
</filter>
</defs>
</svg>
