<svg width="50" height="36" viewBox="0 0 50 36" fill="none" xmlns="http://www.w3.org/2000/svg">
<path fill-rule="evenodd" clip-rule="evenodd" d="M15.7141 9.99998C15.7141 9.211 16.3537 8.57141 17.1427 8.57141H34.2855C35.0745 8.57141 35.7141 9.211 35.7141 9.99998C35.7141 10.789 35.0745 11.4286 34.2855 11.4286H17.1427C16.3537 11.4286 15.7141 10.789 15.7141 9.99998Z" fill="#111827"/>
<path fill-rule="evenodd" clip-rule="evenodd" d="M15.7141 17.1428C15.7141 16.3539 16.3537 15.7143 17.1427 15.7143H34.2855C35.0745 15.7143 35.7141 16.3539 35.7141 17.1428C35.7141 17.9318 35.0745 18.5714 34.2855 18.5714H17.1427C16.3537 18.5714 15.7141 17.9318 15.7141 17.1428Z" fill="#111827"/>
<path fill-rule="evenodd" clip-rule="evenodd" d="M15.7141 24.2857C15.7141 23.4967 16.3537 22.8571 17.1427 22.8571H34.2855C35.0745 22.8571 35.7141 23.4967 35.7141 24.2857C35.7141 25.0747 35.0745 25.7143 34.2855 25.7143H17.1427C16.3537 25.7143 15.7141 25.0747 15.7141 24.2857Z" fill="#111827"/>
</svg>
