<svg width="50" height="48" viewBox="0 0 50 48" fill="none" xmlns="http://www.w3.org/2000/svg">
<path d="M23.3384 30.4099C25.1134 37.0039 24.1434 44.896 23.3385 47.3103" stroke="#ACF2BC" stroke-width="2"/>
<path d="M37.9042 5.44459C37.5134 5.02393 36.8716 5.21979 36.7648 5.77848C36.2609 8.33584 34.511 10.4177 31.9945 11.2725L28.8191 12.351C24.6116 13.78 22.3575 18.353 23.7865 22.5604C23.8809 22.8383 24.003 23.0934 24.1224 23.3539C26.0387 20.6798 29.1713 17.8981 34.3552 16.1374C34.7045 16.0188 35.0873 16.2075 35.206 16.5568C35.3246 16.9061 35.1359 17.2889 34.7866 17.4076C24.8079 20.7968 22.6541 28.3506 22.498 30.967C22.4558 31.7029 23.0161 32.3361 23.7534 32.3822C24.4961 32.4311 25.1278 31.8667 25.1794 31.132C25.1904 30.9689 25.3632 28.949 26.8118 26.5666C28.6897 27.8723 31.6996 28.7049 34.7948 27.2729C40.8729 24.7038 43.3607 17.6254 41.0365 10.7824C40.3597 8.78982 39.23 6.8714 37.9042 5.44459Z" fill="#ACF2BC"/>
<path d="M2.70069 9.97853C2.97108 9.47201 3.64164 9.49743 3.88766 10.0103C5.02798 12.3541 7.25167 13.92 9.90302 14.1036L13.2486 14.3352C17.6814 14.6422 21.0289 18.4877 20.7219 22.9205C20.7017 23.2133 20.6488 23.4912 20.5998 23.7735C18.0641 21.6776 14.3249 19.7883 8.86326 19.4101C8.49525 19.3847 8.1733 19.6649 8.14782 20.0329C8.12233 20.4009 8.40258 20.7229 8.7706 20.7484C19.284 21.4763 23.2957 28.2294 24.115 30.7191C24.3438 31.4199 23.9638 32.1751 23.2627 32.4081C22.5572 32.645 21.8022 32.2608 21.5648 31.5636C21.5124 31.4087 20.8294 29.4999 18.8203 27.5665C17.3382 29.3086 14.6408 30.8825 11.2825 30.2885C4.74986 29.3572 0.536528 23.149 1.03575 15.9393C1.18112 13.84 1.78334 11.6967 2.70069 9.97853Z" fill="#ACF2BC"/>
</svg>
